<mxfile host="app.diagrams.net" modified="2023-06-25T08:06:29.506Z" agent="Mozilla/5.0 (Windows NT 10.0; Win64; x64) AppleWebKit/537.36 (KHTML, like Gecko) Chrome/114.0.0.0 Safari/537.36 Edg/114.0.1823.58" etag="tq6rvxXLY8lNZVEvHqFS" version="21.5.0" type="google">
  <diagram id="R2lEEEUBdFMjLlhIrx00" name="Page-1">
    <mxGraphModel grid="1" page="1" gridSize="10" guides="1" tooltips="1" connect="1" arrows="1" fold="1" pageScale="1" pageWidth="850" pageHeight="1100" math="0" shadow="0" extFonts="Permanent Marker^https://fonts.googleapis.com/css?family=Permanent+Marker">
      <root>
        <mxCell id="0" />
        <mxCell id="1" parent="0" />
        <mxCell id="xA1QGCQDiLXuUvINp8hL-1" value="Order" style="rounded=0;whiteSpace=wrap;html=1;fillColor=#dae8fc;strokeColor=#6c8ebf;" vertex="1" parent="1">
          <mxGeometry x="560" y="190" width="120" height="60" as="geometry" />
        </mxCell>
        <mxCell id="xA1QGCQDiLXuUvINp8hL-2" value="Detail Order" style="rounded=0;whiteSpace=wrap;html=1;fillColor=#dae8fc;strokeColor=#6c8ebf;" vertex="1" parent="1">
          <mxGeometry x="210" y="90" width="120" height="60" as="geometry" />
        </mxCell>
        <mxCell id="xA1QGCQDiLXuUvINp8hL-4" value="" style="endArrow=none;html=1;rounded=0;entryX=0;entryY=0.75;entryDx=0;entryDy=0;" edge="1" parent="1" target="xA1QGCQDiLXuUvINp8hL-1">
          <mxGeometry relative="1" as="geometry">
            <mxPoint x="490" y="240" as="sourcePoint" />
            <mxPoint x="490" y="250" as="targetPoint" />
          </mxGeometry>
        </mxCell>
        <mxCell id="xA1QGCQDiLXuUvINp8hL-5" value="1" style="resizable=0;html=1;whiteSpace=wrap;align=right;verticalAlign=bottom;" connectable="0" vertex="1" parent="xA1QGCQDiLXuUvINp8hL-4">
          <mxGeometry x="1" relative="1" as="geometry" />
        </mxCell>
        <mxCell id="xA1QGCQDiLXuUvINp8hL-6" value="" style="endArrow=none;html=1;rounded=0;exitX=0;exitY=0.5;exitDx=0;exitDy=0;entryX=1;entryY=1;entryDx=0;entryDy=0;" edge="1" parent="1" source="xA1QGCQDiLXuUvINp8hL-3" target="xA1QGCQDiLXuUvINp8hL-2">
          <mxGeometry relative="1" as="geometry">
            <mxPoint x="330" y="250" as="sourcePoint" />
            <mxPoint x="380" y="260" as="targetPoint" />
          </mxGeometry>
        </mxCell>
        <mxCell id="xA1QGCQDiLXuUvINp8hL-7" value="1" style="resizable=0;html=1;whiteSpace=wrap;align=right;verticalAlign=bottom;" connectable="0" vertex="1" parent="xA1QGCQDiLXuUvINp8hL-6">
          <mxGeometry x="1" relative="1" as="geometry" />
        </mxCell>
        <mxCell id="xA1QGCQDiLXuUvINp8hL-8" value="Customer" style="rounded=0;whiteSpace=wrap;html=1;fillColor=#dae8fc;strokeColor=#6c8ebf;" vertex="1" parent="1">
          <mxGeometry x="560" y="10" width="120" height="60" as="geometry" />
        </mxCell>
        <mxCell id="xA1QGCQDiLXuUvINp8hL-9" value="Product" style="rounded=0;whiteSpace=wrap;html=1;fillColor=#dae8fc;strokeColor=#6c8ebf;" vertex="1" parent="1">
          <mxGeometry x="60" y="250" width="120" height="60" as="geometry" />
        </mxCell>
        <mxCell id="xA1QGCQDiLXuUvINp8hL-10" value="Delivery" style="rounded=0;whiteSpace=wrap;html=1;fillColor=#dae8fc;strokeColor=#6c8ebf;" vertex="1" parent="1">
          <mxGeometry x="560" y="390" width="120" height="60" as="geometry" />
        </mxCell>
        <mxCell id="xA1QGCQDiLXuUvINp8hL-11" value="Category" style="rounded=0;whiteSpace=wrap;html=1;fillColor=#dae8fc;strokeColor=#6c8ebf;" vertex="1" parent="1">
          <mxGeometry x="60" y="460" width="120" height="60" as="geometry" />
        </mxCell>
        <mxCell id="xA1QGCQDiLXuUvINp8hL-12" value="Department" style="rounded=0;whiteSpace=wrap;html=1;fillColor=#dae8fc;strokeColor=#6c8ebf;" vertex="1" parent="1">
          <mxGeometry x="390" y="460" width="120" height="60" as="geometry" />
        </mxCell>
        <mxCell id="xA1QGCQDiLXuUvINp8hL-13" value="include" style="rhombus;whiteSpace=wrap;html=1;fillColor=#e1d5e7;strokeColor=#9673a6;" vertex="1" parent="1">
          <mxGeometry x="80" y="120" width="80" height="80" as="geometry" />
        </mxCell>
        <mxCell id="xA1QGCQDiLXuUvINp8hL-14" value="include" style="rhombus;whiteSpace=wrap;html=1;fillColor=#e1d5e7;strokeColor=#9673a6;" vertex="1" parent="1">
          <mxGeometry x="80" y="340" width="80" height="80" as="geometry" />
        </mxCell>
        <mxCell id="xA1QGCQDiLXuUvINp8hL-15" value="include" style="rhombus;whiteSpace=wrap;html=1;fillColor=#e1d5e7;strokeColor=#9673a6;" vertex="1" parent="1">
          <mxGeometry x="240" y="440" width="80" height="80" as="geometry" />
        </mxCell>
        <mxCell id="xA1QGCQDiLXuUvINp8hL-16" value="include" style="rhombus;whiteSpace=wrap;html=1;fillColor=#e1d5e7;strokeColor=#9673a6;" vertex="1" parent="1">
          <mxGeometry x="580" y="280" width="80" height="80" as="geometry" />
        </mxCell>
        <mxCell id="xA1QGCQDiLXuUvINp8hL-17" value="create" style="rhombus;whiteSpace=wrap;html=1;fillColor=#e1d5e7;strokeColor=#9673a6;" vertex="1" parent="1">
          <mxGeometry x="580" y="90" width="80" height="80" as="geometry" />
        </mxCell>
        <mxCell id="xA1QGCQDiLXuUvINp8hL-18" value="" style="endArrow=none;html=1;rounded=0;" edge="1" parent="1" target="xA1QGCQDiLXuUvINp8hL-1">
          <mxGeometry relative="1" as="geometry">
            <mxPoint x="620" y="170" as="sourcePoint" />
            <mxPoint x="430" y="250" as="targetPoint" />
          </mxGeometry>
        </mxCell>
        <mxCell id="xA1QGCQDiLXuUvINp8hL-19" value="N" style="resizable=0;html=1;whiteSpace=wrap;align=right;verticalAlign=bottom;" connectable="0" vertex="1" parent="xA1QGCQDiLXuUvINp8hL-18">
          <mxGeometry x="1" relative="1" as="geometry" />
        </mxCell>
        <mxCell id="xA1QGCQDiLXuUvINp8hL-20" value="" style="endArrow=none;html=1;rounded=0;" edge="1" parent="1" source="xA1QGCQDiLXuUvINp8hL-3">
          <mxGeometry relative="1" as="geometry">
            <mxPoint x="270" y="250" as="sourcePoint" />
            <mxPoint x="430" y="250" as="targetPoint" />
          </mxGeometry>
        </mxCell>
        <mxCell id="xA1QGCQDiLXuUvINp8hL-21" value="1" style="resizable=0;html=1;whiteSpace=wrap;align=right;verticalAlign=bottom;" connectable="0" vertex="1" parent="xA1QGCQDiLXuUvINp8hL-20">
          <mxGeometry x="1" relative="1" as="geometry" />
        </mxCell>
        <mxCell id="xA1QGCQDiLXuUvINp8hL-24" value="" style="endArrow=none;html=1;rounded=0;entryX=0.5;entryY=1;entryDx=0;entryDy=0;" edge="1" parent="1" source="xA1QGCQDiLXuUvINp8hL-17" target="xA1QGCQDiLXuUvINp8hL-8">
          <mxGeometry relative="1" as="geometry">
            <mxPoint x="230" y="250" as="sourcePoint" />
            <mxPoint x="390" y="250" as="targetPoint" />
          </mxGeometry>
        </mxCell>
        <mxCell id="xA1QGCQDiLXuUvINp8hL-25" value="1" style="resizable=0;html=1;whiteSpace=wrap;align=right;verticalAlign=bottom;" connectable="0" vertex="1" parent="xA1QGCQDiLXuUvINp8hL-24">
          <mxGeometry x="1" relative="1" as="geometry" />
        </mxCell>
        <mxCell id="xA1QGCQDiLXuUvINp8hL-26" value="" style="endArrow=none;html=1;rounded=0;" edge="1" parent="1" source="xA1QGCQDiLXuUvINp8hL-3">
          <mxGeometry relative="1" as="geometry">
            <mxPoint x="270" y="250" as="sourcePoint" />
            <mxPoint x="430" y="250" as="targetPoint" />
          </mxGeometry>
        </mxCell>
        <mxCell id="xA1QGCQDiLXuUvINp8hL-27" value="1" style="resizable=0;html=1;whiteSpace=wrap;align=right;verticalAlign=bottom;" connectable="0" vertex="1" parent="xA1QGCQDiLXuUvINp8hL-26">
          <mxGeometry x="1" relative="1" as="geometry" />
        </mxCell>
        <mxCell id="xA1QGCQDiLXuUvINp8hL-3" value="extend" style="rhombus;whiteSpace=wrap;html=1;fillColor=#e1d5e7;strokeColor=#9673a6;" vertex="1" parent="1">
          <mxGeometry x="410" y="200" width="80" height="80" as="geometry" />
        </mxCell>
        <mxCell id="xA1QGCQDiLXuUvINp8hL-30" value="" style="endArrow=none;html=1;rounded=0;exitX=0.5;exitY=0;exitDx=0;exitDy=0;entryX=0;entryY=0.5;entryDx=0;entryDy=0;" edge="1" parent="1" source="xA1QGCQDiLXuUvINp8hL-13" target="xA1QGCQDiLXuUvINp8hL-2">
          <mxGeometry relative="1" as="geometry">
            <mxPoint x="270" y="250" as="sourcePoint" />
            <mxPoint x="430" y="250" as="targetPoint" />
          </mxGeometry>
        </mxCell>
        <mxCell id="xA1QGCQDiLXuUvINp8hL-31" value="1" style="resizable=0;html=1;whiteSpace=wrap;align=right;verticalAlign=bottom;" connectable="0" vertex="1" parent="xA1QGCQDiLXuUvINp8hL-30">
          <mxGeometry x="1" relative="1" as="geometry" />
        </mxCell>
        <mxCell id="xA1QGCQDiLXuUvINp8hL-32" value="" style="endArrow=none;html=1;rounded=0;exitX=0.5;exitY=1;exitDx=0;exitDy=0;entryX=0.5;entryY=0;entryDx=0;entryDy=0;" edge="1" parent="1" source="xA1QGCQDiLXuUvINp8hL-13" target="xA1QGCQDiLXuUvINp8hL-9">
          <mxGeometry relative="1" as="geometry">
            <mxPoint x="270" y="250" as="sourcePoint" />
            <mxPoint x="430" y="250" as="targetPoint" />
          </mxGeometry>
        </mxCell>
        <mxCell id="xA1QGCQDiLXuUvINp8hL-33" value="N" style="resizable=0;html=1;whiteSpace=wrap;align=right;verticalAlign=bottom;" connectable="0" vertex="1" parent="xA1QGCQDiLXuUvINp8hL-32">
          <mxGeometry x="1" relative="1" as="geometry" />
        </mxCell>
        <mxCell id="xA1QGCQDiLXuUvINp8hL-40" value="" style="endArrow=none;html=1;rounded=0;exitX=0;exitY=0.5;exitDx=0;exitDy=0;entryX=1;entryY=0.25;entryDx=0;entryDy=0;" edge="1" parent="1" source="xA1QGCQDiLXuUvINp8hL-15" target="xA1QGCQDiLXuUvINp8hL-11">
          <mxGeometry relative="1" as="geometry">
            <mxPoint x="270" y="470" as="sourcePoint" />
            <mxPoint x="430" y="470" as="targetPoint" />
          </mxGeometry>
        </mxCell>
        <mxCell id="xA1QGCQDiLXuUvINp8hL-41" value="N" style="resizable=0;html=1;whiteSpace=wrap;align=right;verticalAlign=bottom;" connectable="0" vertex="1" parent="xA1QGCQDiLXuUvINp8hL-40">
          <mxGeometry x="1" relative="1" as="geometry" />
        </mxCell>
        <mxCell id="xA1QGCQDiLXuUvINp8hL-42" value="" style="endArrow=none;html=1;rounded=0;entryX=-0.033;entryY=0.378;entryDx=0;entryDy=0;entryPerimeter=0;" edge="1" parent="1" target="xA1QGCQDiLXuUvINp8hL-12">
          <mxGeometry relative="1" as="geometry">
            <mxPoint x="320" y="480" as="sourcePoint" />
            <mxPoint x="430" y="470" as="targetPoint" />
          </mxGeometry>
        </mxCell>
        <mxCell id="xA1QGCQDiLXuUvINp8hL-43" value="1" style="resizable=0;html=1;whiteSpace=wrap;align=right;verticalAlign=bottom;" connectable="0" vertex="1" parent="xA1QGCQDiLXuUvINp8hL-42">
          <mxGeometry x="1" relative="1" as="geometry" />
        </mxCell>
        <mxCell id="xA1QGCQDiLXuUvINp8hL-44" value="" style="endArrow=none;html=1;rounded=0;entryX=0.5;entryY=0;entryDx=0;entryDy=0;exitX=0.5;exitY=1;exitDx=0;exitDy=0;" edge="1" parent="1" source="xA1QGCQDiLXuUvINp8hL-14" target="xA1QGCQDiLXuUvINp8hL-11">
          <mxGeometry relative="1" as="geometry">
            <mxPoint x="270" y="330" as="sourcePoint" />
            <mxPoint x="430" y="330" as="targetPoint" />
          </mxGeometry>
        </mxCell>
        <mxCell id="xA1QGCQDiLXuUvINp8hL-45" value="1" style="resizable=0;html=1;whiteSpace=wrap;align=right;verticalAlign=bottom;" connectable="0" vertex="1" parent="xA1QGCQDiLXuUvINp8hL-44">
          <mxGeometry x="1" relative="1" as="geometry" />
        </mxCell>
        <mxCell id="xA1QGCQDiLXuUvINp8hL-50" value="" style="endArrow=none;html=1;rounded=0;entryX=0.5;entryY=1;entryDx=0;entryDy=0;exitX=0.5;exitY=0;exitDx=0;exitDy=0;" edge="1" parent="1" source="xA1QGCQDiLXuUvINp8hL-14" target="xA1QGCQDiLXuUvINp8hL-9">
          <mxGeometry relative="1" as="geometry">
            <mxPoint x="270" y="330" as="sourcePoint" />
            <mxPoint x="430" y="330" as="targetPoint" />
          </mxGeometry>
        </mxCell>
        <mxCell id="xA1QGCQDiLXuUvINp8hL-51" value="N" style="resizable=0;html=1;whiteSpace=wrap;align=right;verticalAlign=bottom;" connectable="0" vertex="1" parent="xA1QGCQDiLXuUvINp8hL-50">
          <mxGeometry x="1" relative="1" as="geometry" />
        </mxCell>
        <mxCell id="xA1QGCQDiLXuUvINp8hL-52" value="" style="endArrow=none;html=1;rounded=0;entryX=0.5;entryY=1;entryDx=0;entryDy=0;exitX=0.5;exitY=0;exitDx=0;exitDy=0;" edge="1" parent="1" source="xA1QGCQDiLXuUvINp8hL-16" target="xA1QGCQDiLXuUvINp8hL-1">
          <mxGeometry relative="1" as="geometry">
            <mxPoint x="270" y="330" as="sourcePoint" />
            <mxPoint x="430" y="330" as="targetPoint" />
          </mxGeometry>
        </mxCell>
        <mxCell id="xA1QGCQDiLXuUvINp8hL-53" value="1" style="resizable=0;html=1;whiteSpace=wrap;align=right;verticalAlign=bottom;" connectable="0" vertex="1" parent="xA1QGCQDiLXuUvINp8hL-52">
          <mxGeometry x="1" relative="1" as="geometry" />
        </mxCell>
        <mxCell id="xA1QGCQDiLXuUvINp8hL-54" value="" style="endArrow=none;html=1;rounded=0;entryX=0.5;entryY=0;entryDx=0;entryDy=0;exitX=0.5;exitY=1;exitDx=0;exitDy=0;" edge="1" parent="1" source="xA1QGCQDiLXuUvINp8hL-16" target="xA1QGCQDiLXuUvINp8hL-10">
          <mxGeometry relative="1" as="geometry">
            <mxPoint x="270" y="330" as="sourcePoint" />
            <mxPoint x="430" y="330" as="targetPoint" />
          </mxGeometry>
        </mxCell>
        <mxCell id="xA1QGCQDiLXuUvINp8hL-55" value="1" style="resizable=0;html=1;whiteSpace=wrap;align=right;verticalAlign=bottom;" connectable="0" vertex="1" parent="xA1QGCQDiLXuUvINp8hL-54">
          <mxGeometry x="1" relative="1" as="geometry" />
        </mxCell>
      </root>
    </mxGraphModel>
  </diagram>
</mxfile>
